<svg width="18" height="18" viewBox="0 0 18 18" fill="none" xmlns="http://www.w3.org/2000/svg">
<path d="M16.816 0.504395H1.18404C0.808113 0.504395 0.504395 0.808113 0.504395 1.18404V16.816C0.504395 17.1919 0.808113 17.4956 1.18404 17.4956H16.816C17.1919 17.4956 17.4956 17.1919 17.4956 16.816V1.18404C17.4956 0.808113 17.1919 0.504395 16.816 0.504395ZM14.8535 5.46371H13.4963C12.4322 5.46371 12.2262 5.9692 12.2262 6.71257V8.3501H14.7664L14.4351 10.9137H12.2262V17.4956H9.57772V10.9158H7.36248V8.3501H9.57772V6.45983C9.57772 4.26583 10.9179 3.07007 12.8761 3.07007C13.8149 3.07007 14.6199 3.14016 14.8556 3.17202V5.46371H14.8535Z" fill="white"/>
</svg>
